# xmcd
#
# Track frame offsets:
#  150
#  11922
#  22600
#  34374
#  46366
#  57067
#  67910
#  77662
#  91661
#  102392
#  113541
#  132768
#  142818
#  155536
#  168178
#  181214
#  193952
#  208404
#  217057
#  227154
#  236301
#
# Disc length: 3374 seconds
#
# Revision: 0
# Processed by: cddbd v1.5.2PL0 Copyright (c) Steve Scherf et al.
# Submitted via: AltoMP3_Maker 3.0
#
DISCID=130d2c15
DTITLE=Various Artist - Truckers, Kickers, Cowboy Angels, Vol. 1, disc 1 (1966-68)
DYEAR=1900
DGENRE=
TTITLE0=Int'l Submarine Band - Truck Driving Man
TTITLE1=Rick Nelson - You Just Can't Quit
TTITLE2=Lovin' Spoonful - Nashville Cats
TTITLE3=Buffalo Springfield - Pay the Price
TTITLE4=Gene Clark and Gosden Bros. - Tried So Hard
TTITLE5=The Youngbloods - Grizzly Bear
TTITLE6=Gene Clark and Gosden Bros. - So You Say You Lost Your Baby
TTITLE7=Gosden Bros. - Tell Me
TTITLE8=Lovin' Spoonful - Darlin' Companion
TTITLE9=Everly Brothers - I'm Movin' on
TTITLE10=Bobbie Gentry - Ode to Billie Joe
TTITLE11=Buffalo Springfield - Child's Claim to Fame
TTITLE12=Everly Brothers - Bowling Green
TTITLE13=Bobbie Gentry - Niki Hoeky
TTITLE14=Int'l Submarine Band - Luxury Liner
TTITLE15=Int'l Submarine Band - Blue Eyes
TTITLE16=Monkees - What Am I Doing Hangin' Round
TTITLE17=The Byrds - Old John Robertson
TTITLE18=The Youngbloods - Sugar Babe
TTITLE19=Kenny Vernon - Ain't That a Shame
TTITLE20=Nashville West/The Reasons - Ode to Billie Joe
EXTD=
EXTT0=
EXTT1=
EXTT2=
EXTT3=
EXTT4=
EXTT5=
EXTT6=
EXTT7=
EXTT8=
EXTT9=
EXTT10=
EXTT11=
EXTT12=
EXTT13=
EXTT14=
EXTT15=
EXTT16=
EXTT17=
EXTT18=
EXTT19=
EXTT20=
PLAYORDER=
